<?xml version="1.0" encoding="UTF-8"?>
<svg xmlns="http://www.w3.org/2000/svg" width="3.46568in" height="2.93104in" version="1.1" viewBox="0 0 249.52864 211.03469">
  <g id="Background" display="none">
    <rect x="-28.0881" y="-38.42827" width="288" height="288" fill="#000" stroke-width="0"/>
  </g>
  <g id="NASA_Insignia" data-name="NASA Insignia">
    <g>
      <g>
        <path d="M42.16115,180.06204c.1694-.15498.3388-.30995.50891-.46393.1953-.17676.39151-.3524.58769-.52807.10368-.09287.20727-.18574.31082-.27869-13.10806-12.93367-22.81471-29.30786-27.57386-47.58974-.7452.3388-1.47905.67972-2.20076,1.02306,1.27843,4.82109,2.90675,9.56303,4.8854,14.20744,2.65932,6.2421,5.94853,12.2697,9.7762,17.91531,3.78955,5.58932,8.13773,10.85018,12.92373,15.63635.13806.13806.27836.27403.41729.41122.01152-.01048.02257-.02054.03409-.03105.11033-.10044.22041-.20116.33049-.30189Z" fill="#fff" stroke-width="0"/>
        <path d="M213.01211,64.60142c-.02128-.04984-.04332-.09944-.06468-.14928-.61891.55505-1.24662,1.11177-1.88274,1.67023,5.09309,12.16286,7.91358,25.47537,7.91358,39.39497,0,56.57082-46.56228,103.13351-103.13355,103.13351-26.2744,0-50.38775-10.04571-68.68134-26.47165-.02968.02494-.06011.0503-.08975.07524-.55401.46647-1.12594.95093-1.74286,1.47605,3.68184,3.32554,7.59307,6.4034,11.68443,9.17746,5.64548,3.82784,11.67291,7.11721,17.91493,9.77666,13.00459,5.54072,26.7703,8.35007,40.91459,8.35007s27.91013-2.80935,40.91497-8.35007c6.2421-2.65945,12.26978-5.94878,17.91535-9.77666,5.58936-3.78968,10.85014-8.13798,15.63635-12.92419,4.78613-4.78613,9.13443-10.04699,12.92411-15.63635,3.82784-5.6456,7.11717-11.67316,9.77662-17.91526,5.54064-13.0048,8.34999-26.77055,8.34999-40.9148s-2.80935-27.911-8.34999-40.91592Z" fill="#fff" stroke-width="0"/>
        <path d="M12.71353,105.51735C12.71353,48.94383,59.27352,2.38384,115.84471,2.38384c36.60524,0,69.01898,19.49491,87.33981,48.58237.68667-.40847,1.36818-.81791,2.04304-1.22862-.64692-1.02846-1.31056-2.04632-1.99207-3.0515-3.78968-5.58932-8.13798-10.8501-12.92419-15.63619-4.78613-4.78609-10.04691-9.13431-15.63627-12.9239-5.64565-3.82771-11.67324-7.11692-17.91535-9.77629C143.75492,2.80923,129.98917,0,115.84471,0s-27.91005,2.80923-40.91455,8.3497c-6.24206,2.65937-12.26949,5.94857-17.91497,9.77629-5.58919,3.78959-10.84985,8.13786-15.6359,12.92394-4.786,4.78609-9.13418,10.04683-12.92373,15.63615-3.82767,5.6456-7.11688,11.6732-9.7762,17.91539-5.54039,13.00488-8.34966,26.77096-8.34966,40.91588,0,7.57536.80676,15.04193,2.40641,22.34135.72188-.38391,1.45527-.76785,2.19868-1.15188-1.4539-6.84746-2.22125-13.93586-2.22125-21.18946Z" fill="#fff" stroke-width="0"/>
      </g>
      <g>
        <g>
          <path d="M128.38051,114.36865l.11848,1.87779,1.05939-.68721c-.41704-.36582-.81412-.75854-1.17787-1.19059Z" fill="#fff" stroke-width="0"/>
          <path d="M173.3626,86.63291c.03658-.02511.07275-.0503.10933-.07545h-1.87293l.83773.71311c.06227-.04298.12513-.08626.18723-.12916.24552-.16961.49203-.33905.73863-.50849Z" fill="#fff" stroke-width="0"/>
        </g>
        <path d="M46.27562,113.7201c-2.0785.81267-4.13081,1.63236-6.15959,2.45858v3.69743l.71261.84996.23105.27561c.77679-.23945,1.55728-.47715,2.34152-.71315.78423-.23596,1.57225-.47021,2.36413-.70271,1.12478-.33028,2.25746-.65707,3.39775-.98065l-2.81725-4.76626-.07021-.11881Z" fill="#fff" stroke-width="0"/>
        <path d="M108.1088,137.48134c-.9459.62664-1.89205,1.25723-2.83837,1.88785,3.87157,5.42773,10.36202,13.29139,13.67654,10.32427,3.60685-3.22743-4.24612-6.60431-10.65991-12.33006-.05945.03937-.11881.07857-.17826.11794Z" fill="#fff" stroke-width="0"/>
        <path d="M68.98637,123.13438l-2.93818-2.94857v-29.43798l1.91986-1.93221,1.9076-1.91991h-12.75512l1.27843,1.28682,2.5485,2.56529v19.63521l-1.06729-1.78663-.44452-.74416-6.0372-10.10619-6.48172-10.85035h-16.69662l1.27801,1.28703,2.54708,2.56508v29.43798l-4.40451,4.42284h13.33221l-2.20329-2.6279-.59338-.7077-.12679-.15123-.78477-.93601v-20.00008l7.3752,12.47747.43886.7425,1.23582,2.0908,1.69497,2.86751.44826.75829,2.0829,3.52396,1.15995,1.96239h16.75486l-1.46911-1.47427Z" fill="#fff" stroke-width="0"/>
        <path d="M96.18929,106.72278v-.00004l-2.88385-7.3111-2.49633,8.6261-.13569.46896-.13718.47403c2.24595-.54612,4.17171-1.01657,5.96848-1.45822l-.27295-.69199-.04249-.10775Z" fill="#fff" stroke-width="0"/>
        <path d="M84.17413,100.07644c-5.7664,1.96179-11.54053,3.96112-17.27457,5.99617v7.82204c5.32694-1.34292,10.67181-2.64324,16.01486-3.94062l-.00137-.00216c.17067-.04151.3447-.08385.5045-.12263.10446-.4657,2.79357-9.73766,3.01675-10.52024-.75364.25579-1.50752.51153-2.26016.76744ZM79.55021,110.77131c.00229-.00054.0047-.00112.00698-.0017-.00233.00058-.00466.00116-.00698.0017Z" fill="#fff" stroke-width="0"/>
        <path d="M249.10229,12.31003c-2.03379,2.87007-4.22382,5.62798-6.54066,8.27546v.00008c-.88976,1.01203-1.79923,2.0097-2.71906,2.99663,0,.00004-.00008.00004-.00008.00008-.42236.44918-.84937.89627-1.2808,1.34107-26.34953,26.50287-61.56715,41.80651-96.02628,54.89834,1.51351,1.87339,2.97447,3.7447,4.34623,5.57032,2.13574.16454,4.20513.57434,6.16378,1.22044.9235-.63745,4.01525-2.77155,4.88315-3.37056.03352,1.0127.1346,4.05831.16969,5.11558,17.90367-6.86702,35.23949-15.55272,50.5322-27.20043-16.32761,14.08401-34.13493,26.32172-52.14465,38.23465.80782,1.29507,1.62713,2.65017,2.43921,4.03228,5.65079-3.72439,11.27665-7.5033,16.83135-11.34533v-.00004c29.57648-21.02306,61.92571-44.56281,73.77227-80.373-.14076.20212-.28351.40332-.42635.60444Z" fill="#fff" stroke-width="0"/>
        <path d="M111.64008,102.82568c.79749-.2079,1.59532-.4172,2.39331-.62789,4.47792-1.18236,8.96166-2.41115,13.43609-3.70167.00607-.10596.01106-.21085.01987-.31931.20461-2.50709,1.23573-4.83414,3.06452-6.91642,1.88332-2.1443,4.12033-3.46563,5.66518-4.1964,1.81008-.85682,3.96402-1.41436,6.30271-1.63785-1.01325-1.26695-2.11304-2.60487-3.33281-4.05461-.06643-.07894-.13377-.15755-.20029-.23645-.08115.02985-.16271.05945-.24394.08925-5.08095,1.86586-10.22118,3.69963-15.39832,5.5083-5.28182,1.84516-10.59964,3.66517-15.92386,5.4713l4.17878,10.52419.03874.09757Z" fill="#fff" stroke-width="0"/>
        <path d="M28.27348,121.22782c-9.62267,4.32473-19.07452,9.08725-27.89421,14.8626.65131.22787,1.99185.6969,2.64752.92632,7.722-4.75337,16.13792-8.2649,24.5712-11.55672h-.00665c.96071-.96472,4.57798-4.59704,5.6025-5.62582v-.76353c-1.66117.71298-3.30188,1.43186-4.92036,2.15715Z" fill="#fff" stroke-width="0"/>
        <path d="M117.61729,120.18581l-4.00767-10.09314-2.48294-6.25308-.3166-.79729-2.02283-5.09442-2.17182-5.46972-.31461-.7923-1.01541-2.55719-.88662-2.23297h-18.43523l1.27843,1.28682,2.5485,2.56529-.98681,3.42028-1.38705,4.80733-6.11972,21.21037-4.40497,4.42284h12.52041l-3.15822-3.84068,1.36319-4.64649h13.24512l1.56672,4.06433-4.40675,4.42284h18.19562c.35751-.23487.71793-.47162,1.08408-.71186l.53826-.35319c.62988-.41338,1.25959-.82639,1.88889-1.2381l-2.11196-2.11969ZM89.26884,110.29782l.23001-.79488.08406-.2905.2727-.94241,3.24772-11.22274.07815-.27004v-.00004l.0848.215,2.4476,6.20506,1.3099,3.32084.31527.7992,1.17562,2.9805h-9.24584Z" fill="#fff" stroke-width="0"/>
        <path d="M92.39085,122.27208c.87719,1.19154,1.75607,2.36193,2.63738,3.51473.29382.38428.58781.76661.88222,1.1471.58873.76099,1.17862,1.51471,1.76992,2.26224.5913.74748,1.18402,1.48877,1.77832,2.22491.7644.94669,1.5318,1.88415,2.30202,2.81605.01297-.00881.02636-.01796.03941-.02677.73447-.49723,1.46936-.99304,2.20425-1.48794-2.459-3.15019-5.10523-6.36852-7.82553-9.77342-.58282-.72953-1.16905-1.46757-1.75745-2.21535-.58839-.74778-1.17886-1.50524-1.7705-2.27355-.4101-.53256-.82073-1.0724-1.23141-1.61577h-2.90251c1.28911,1.86183,2.57959,3.66954,3.8739,5.42777Z" fill="#fff" stroke-width="0"/>
        <path d="M163.24406,124.60865h2.16002c-.20129-.52712-.40349-1.04684-.60643-1.55999l-1.55358,1.55999Z" fill="#fff" stroke-width="0"/>
        <path d="M208.37846,124.60865c-.93226-.93517-3.4449-3.4556-4.40916-4.42284l-13.21851-33.2901h-6.16628c-2.98314,2.14621-6.06078,4.30781-9.20086,6.47544l-7.73466,26.81466c-.15452.15517-.65965.66229-.82219.82547-2.12572-5.30935-4.82119-10.47932-7.66906-15.48832-.00033-.00062-.00075-.00125-.00108-.00187-.06169-.10778-.12367-.21559-.18574-.32355-.49066-.84891-.98412-1.6943-1.4884-2.53702v-.00004c-.00058-.00096-.00116-.00191-.00175-.00291-.25092-.41977-.50478-.84045-.76133-1.26176-.00008-.00004-.00008-.00012-.00008-.00021-.00008-.00004-.00008-.00008-.00008-.00012-.00033-.00058-.00067-.00116-.00108-.00175-.00008-.00012-.00017-.00025-.00025-.00042-.04602-.07548-.09197-.15111-.13802-.22656,0-.00004-.00008-.00012-.00008-.00017-1.75821-2.87334-3.58502-5.67531-5.49699-8.46194l-4.64894-6.49049c-4.54618-6.06785-9.47122-11.93629-14.7055-17.43807l-.00025-.00025c-.00025-.00029-.00042-.00054-.00075-.00079-2.21899-2.32964-4.50196-4.59914-6.85045-6.7979-.00067-.00058-.00125-.00116-.00191-.00175-.0005-.00054-.00108-.00108-.00166-.00158-1.35442-1.26335-2.72766-2.50722-4.12682-3.72025-.00008-.00008-.00017-.00012-.00025-.00021-.30431-.26443-.60929-.52619-.91489-.78818-.00008-.00008-.00017-.00012-.00025-.00021-.6108-.5225-1.22673-1.03527-1.84574-1.5471v-.00004c-.00008-.00004-.00017-.00012-.00025-.00021-.78197-.64471-1.56996-1.27892-2.3638-1.90224-.00017-.00012-.00042-.00029-.00058-.00042-.00042-.00029-.00075-.00062-.00116-.00091-1.02059-.80055-2.05229-1.58789-3.09711-2.35598-2.98022-2.19106-6.06769-4.25237-9.26048-6.1077-.85305-.501-1.7159-.98578-2.58612-1.45423-.00008,0-.00008-.00004-.00017-.00008-7.03265-3.72894-16.21451-7.69866-24.29038-6.14879-10.55263,2.12505-12.7253,13.37971-12.09923,22.61595.39203,6.12017,1.81438,12.14061,3.7399,17.95383,2.6145,7.90169,6.30574,15.42035,10.51439,22.58728.6383-.21966,1.34077-.46164,1.97711-.67985-2.82026-5.00139-5.27411-10.24294-7.48355-15.54073-3.65271-8.95899-7.13202-19.58898-6.67791-29.32392v-.00004c.00421-.07411.00857-.148.0128-.22207v-.00004c.46475-8.52497,4.68211-15.06636,13.78142-15.41862,9.29474-.30177,19.42411,5.21184,26.97502,10.27323,12.72454,8.6089,26.30498,22.35274,37.05419,35.95637l.00033.00017.00374.00499c.00582.00748.01172.01476.01754.0222-.00033,0-.00067.00004-.00091.00004l4.28304,5.72201h-.00008c.00399.00104.00806.00216.01206.00308,1.91133,2.64236,3.77828,5.33852,5.51211,8.10706,2.09494,3.17164,5.69056,9.22024,9.08387,16.79801,1.35962,2.74908,4.07679,10.15711,4.58462,11.83624,8.41679,26.55109,1.25265,43.53805-28.46468,31.23463.01105.03466.07689.24255.08938.28193,11.16877,4.73396,28.82515,9.73753,32.44524-6.53338,1.92326-8.95723-.7537-20.42246-3.61307-29.01696h7.63173l-3.16046-3.84068,1.36543-4.64649h13.24512c.38222.99147,1.19008,3.08715,1.56672,4.06433l-4.40908,4.42284h24.0063ZM175.62093,110.29782c.85004-2.93781,3.03637-10.49384,3.91214-13.52057v-.00004l5.33594,13.52061h-9.24809Z" fill="#fff" stroke-width="0"/>
        <path d="M153.23373,93.65271c.001.00046.00191.00096.00283.00145,1.86445.92986,3.3832,1.97661,4.10545,2.71998.06568.06759.12471.13269.17693.19501l-.06385-1.92269-.16811-5.06665-.02985-.89947-.12779-3.85232-3.54757,2.44869-.38353.26472-.02145.0148c-.00399-.00141-.00815-.00262-.01214-.00399-.00615-.00216-.0123-.00403-.01846-.00607-.02677-.00931-.05404-.01742-.0809-.02661-.21875-.07508-.43832-.14824-.65956-.21708-.00008-.00004-.00017-.00004-.00025-.00008s-.00025-.00008-.00033-.00008-.00008,0-.00017-.00004c-.00008,0-.00008-.00004-.00017-.00004-.04939-.01538-.0991-.02964-.14874-.04415-.03143-.00919-.06277-.01862-.0942-.02794-.00358-.00108-.00707-.00208-.01064-.00316-.00083-.00025-.00175-.0005-.00266-.00075-.08913-.02665-.17867-.05196-.26813-.07757-.01788-.00511-.03567-.01039-.05354-.01551-.02893-.00831-.05778-.01692-.0868-.02511-.00382-.00108-.00765-.00224-.01147-.00333-.00507-.00141-.01006-.00291-.01513-.00436-.01788-.00507-.03575-.01027-.05363-.01551-.01006-.00295-.0202-.00594-.03035-.00877-.00183-.0005-.00358-.00108-.0054-.00158h-.00008s-.00008-.00004-.00008-.00004c-.00017-.00004-.00025-.00008-.00042-.00012,0,0-.00008-.00004-.00017-.00004t-.00008-.00004c-.00017-.00008-.00042-.00012-.00058-.00017-.00008,0-.00008-.00004-.00017-.00004-.00008-.00004-.00017-.00004-.00025-.00004-.00224-.00058-.00441-.00116-.00657-.00175-.00091-.00025-.00183-.00046-.00266-.00071-.00025-.00004-.0005-.00012-.00075-.00021l-.002-.0005c-.00457-.00125-.00915-.00241-.01372-.00362-.06094-.01655-.12213-.03234-.18324-.04822-.00183-.00046-.00358-.00091-.00532-.00137-.03001-.00786-.06003-.01588-.09004-.0237-.16204-.04224-.32434-.08356-.48729-.12251-.10717-.02565-.21467-.05013-.32226-.07437-.06834-.01538-.13693-.02956-.20544-.04419-.0232-.00503-.04631-.00998-.06951-.01492-.06843-.01492-.13677-.03014-.20544-.04419-.00042-.00008-.00083-.00017-.00116-.00025-.00025-.00004-.0005-.00012-.00083-.00017-.01214-.00245-.02419-.00486-.03633-.00727-.01688-.00333-.03376-.00665-.05063-.01006-.00856-.0017-.01713-.00345-.02577-.00515-.00964-.00191-.01921-.00382-.02885-.00574l-.01871-.00374c-.00382-.00079-.00782-.00154-.01164-.00233-.00316-.00062-.00624-.00125-.00939-.00187-.00532-.00108-.01056-.00212-.0158-.00316-.00033-.00004-.00058-.00012-.00083-.00017-.00008-.00004-.00025-.00004-.00033-.00008-.00224-.00042-.00449-.00087-.00665-.00133-.00116-.00021-.00224-.00046-.00341-.00067-.00158-.00033-.00316-.00062-.00474-.00096-.00133-.00025-.00274-.00054-.00407-.00083-.00557-.00108-.01114-.00224-.01679-.00333-.02893-.0057-.05778-.01172-.08672-.01729-.00058-.00008-.00116-.00025-.00175-.00033-.00033-.00008-.00067-.00012-.00108-.00017-.00008,0-.00008-.00004-.00008-.00004h-.00008s-.00008,0-.00008-.00004h-.00017c-.02552-.00491-.05105-.00931-.07666-.0138-.00349-.00062-.00698-.00125-.01039-.00191-.02577-.00453-.0513-.0091-.07699-.0138-.01812-.00333-.03625-.00649-.05437-.00977-.09112-.01646-.18216-.03355-.27345-.04918-.00058-.00012-.00108-.00021-.00166-.00029-.00042-.00008-.00075-.00012-.00116-.00021-.02054-.00349-.04107-.00694-.06161-.01039-.00416-.00071-.00823-.00141-.0123-.00208-.00457-.00079-.00915-.00154-.01372-.00233-.074-.0128-.14799-.02577-.22207-.03754-.00017-.00004-.00025-.00004-.00042-.00004-.0449-.00715-.08996-.01289-.13486-.01966-.13535-.02037-.27063-.04053-.40598-.05911-.02286-.00316-.04573-.00636-.06859-.00956-.00166-.00021-.00341-.00046-.00515-.00071l-.05363-.00748c-.00499-.00071-.01006-.00137-.01505-.00208-.04066-.00582-.08115-.01181-.1218-.01696h-.00017c-.18083-.02295-.36183-.04157-.54275-.06086l5.1458,7.08212c.18216.08534.36233.17169.53859.25957Z" fill="#fff" stroke-width="0"/>
        <path d="M151.51885,101.63277c-2.24368-.90616-4.50892-1.80829-6.74353-2.73952-2.17484-1.03643-3.44355-1.15633-4.61055-2.39149-1.91494-3.23235,2.84885-5.10152,5.44454-4.96379.55555.00237,1.1115.0473,1.66192.13016-.85263-1.29631-3.02932-4.25243-4.06014-5.44241-2.7482.18127-5.49449.86278-7.88124,2.26453-.18588.10628-.36932.21568-.55297.32995v.00004s-.00008,0-.00008.00004c-.00401.00239-.00791.00506-.01181.00748-5.45682,3.12143-8.51324,10.14889-4.9347,15.74897-.00279-.00417-.00533-.00851-.00806-.01272.04708.07427.09478.1482.14375.22082.00003.00012.0001.00023.00017.00033.00008.00008.00017.00017.00017.00021.10543.15505.21475.30723.32758.4569,1.92514,2.51629,4.90152,3.91978,7.72169,5.18479,3.90062-2.527,8.57284-5.55741,13.51001-8.79156-.00233-.00096-.00449-.00183-.00673-.00274ZM129.60788,104.20887c-.02172-.03806-.04398-.07581-.06576-.11382,0,.00004,0,.00008.00008.00012.02193.03821.04418.07616.0661.11436-.00017-.00021-.00033-.00046-.00042-.00067Z" fill="#fff" stroke-width="0"/>
        <path d="M153.75843,101.18962c-43.34185,28.399-88.36748,55.52936-124.87221,92.79211-.04413.78488-.1567,2.78704-.19937,3.54549,34.6682-32.99588,75.80187-58.92679,115.78126-84.63617l11.73344-7.69741c-.91348-1.57333-1.74098-2.91237-2.44312-4.00402Z" fill="#fff" stroke-width="0"/>
        <path d="M156.62698,105.93268l-11.20291,7.34938c4.92556,1.81423,4.52357,5.56335-.45509,6.75541-2.93093.58658-5.98692-.07808-8.85211-.78052-2.37607,1.53207-4.75412,3.06521-7.14303,4.60829l.0084.13328.19281,3.0587c.8561-.62787,3.5917-2.63416,4.40043-3.22735,6.66349,2.35839,14.39809,2.7799,20.81882-.52354,0-.00004.00008-.00004.00008-.00004,2.74241-1.40568,5.25272-3.62634,6.24999-6.6165.23544-.70502.39016-1.4383.4469-2.18067-1.57812-3.32566-3.10526-6.19534-4.46429-8.57643Z" fill="#fff" stroke-width="0"/>
      </g>
    </g>
    <path d="M116.44721,12.7013c.46094,0,.83936-.38025.83936-.84119,0-.45862-.37842-.83893-.83936-.83893-.46045,0-.83893.38031-.83893.83893,0,.46094.37848.84119.83893.84119Z" fill="#fff" stroke-width="0"/>
    <path d="M122.06721,25.61866c.56812,0,1.03363-.46503,1.03363-1.03363,0-.56586-.46552-1.0332-1.03363-1.0332-.56586,0-1.03363.46735-1.03363,1.0332,0,.5686.46777,1.03363,1.03363,1.03363Z" fill="#fff" stroke-width="0"/>
    <path d="M136.14833,45.3844c0,.56586.46503,1.03363,1.0332,1.03363.5686,0,1.03363-.46777,1.03363-1.03363s-.46503-1.03363-1.03363-1.03363c-.56818,0-1.0332.46777-1.0332,1.03363Z" fill="#fff" stroke-width="0"/>
    <path d="M113.08924,32.59443c.46094,0,.83893-.37799.83893-.83893s-.37799-.83893-.83893-.83893c-.46051,0-.84125.37799-.84125.83893s.38074.83893.84125.83893Z" fill="#fff" stroke-width="0"/>
    <path d="M122.13227,35.69489c-.46094,0-.83893.38074-.83893.84125,0,.45862.37799.83887.83893.83887.46088,0,.83893-.38025.83893-.83887,0-.46051-.37805-.84125-.83893-.84125Z" fill="#fff" stroke-width="0"/>
    <path d="M110.18348,24.19837c.56586,0,1.03137-.46783,1.03137-1.03369,0-.56628-.46552-1.03363-1.03137-1.03363-.5686,0-1.03363.46735-1.03363,1.03363,0,.56586.46503,1.03369,1.03363,1.03369Z" fill="#fff" stroke-width="0"/>
    <path d="M96.68196,32.33692c.46088,0,.84119-.37799.84119-.83893s-.38031-.84119-.84119-.84119c-.46094,0-.83893.38025-.83893.84119s.37799.83893.83893.83893Z" fill="#fff" stroke-width="0"/>
    <path d="M99.13594,34.01703c.46094,0,.84119-.38025.84119-.84119,0-.46045-.38025-.83893-.84119-.83893-.45862,0-.83893.37848-.83893.83893,0,.46094.38031.84119.83893.84119Z" fill="#fff" stroke-width="0"/>
    <path d="M101.59266,35.69489c.45868,0,.83893-.37799.83893-.83893,0-.46045-.38025-.83893-.83893-.83893-.46094,0-.84119.37848-.84119.83893,0,.46094.38025.83893.84119.83893Z" fill="#fff" stroke-width="0"/>
    <path d="M97.0063,38.08655c0,.45868.37805.83893.83893.83893.46094,0,.83893-.38025.83893-.83893,0-.46088-.37799-.84119-.83893-.84119-.46088,0-.83893.38031-.83893.84119Z" fill="#fff" stroke-width="0"/>
    <path d="M77.49812,51.77826c0,.4632.38025.84119.84119.84119s.83893-.37799.83893-.84119c0-.45862-.37799-.83893-.83893-.83893s-.84119.38031-.84119.83893Z" fill="#fff" stroke-width="0"/>
    <path d="M81.95661,57.01111c.46094,0,.83893-.38031.83893-.83893,0-.46094-.37799-.84125-.83893-.84125s-.84119.38031-.84119.84125c0,.45862.38025.83893.84119.83893Z" fill="#fff" stroke-width="0"/>
    <path d="M79.11317,126.25666c-.46094,0-.83893.37567-.83893.83661s.37799.84125.83893.84125.84119-.38031.84119-.84125-.38025-.83661-.84119-.83661Z" fill="#fff" stroke-width="0"/>
    <path d="M78.40394,146.66425c0,.56818.46545,1.03778,1.03363,1.03778.56586,0,1.03363-.4696,1.03363-1.03778,0-.56396-.46777-1.03363-1.03363-1.03363-.56818,0-1.03363.46967-1.03363,1.03363Z" fill="#fff" stroke-width="0"/>
    <path d="M68.52015,155.83649c-.46094,0-.83893.38031-.83893.84125,0,.46088.37799.84119.83893.84119.46088,0,.84119-.38031.84119-.84119,0-.46094-.38031-.84125-.84119-.84125Z" fill="#fff" stroke-width="0"/>
    <path d="M55.02088,159.71131c-.56586,0-1.03363.47009-1.03363,1.03821,0,.5636.46777,1.03369,1.03363,1.03369s1.03363-.47009,1.03363-1.03369c0-.56812-.46777-1.03821-1.03363-1.03821Z" fill="#fff" stroke-width="0"/>
    <path d="M52.30714,150.66877c-.56586,0-1.03369.4696-1.03369,1.03821,0,.56354.46783,1.0332,1.03369,1.0332.56812,0,1.03363-.46967,1.03363-1.0332,0-.5686-.46552-1.03821-1.03363-1.03821Z" fill="#fff" stroke-width="0"/>
    <path d="M50.95136,156.61493c-.46094,0-.83893.37616-.83893.8371s.37799.84125.83893.84125.83893-.38031.83893-.84125-.37799-.8371-.83893-.8371Z" fill="#fff" stroke-width="0"/>
    <path d="M41.00483,151.83204c-.46094,0-.84125.38031-.84125.84125,0,.46088.38031.84119.84125.84119s.83893-.38031.83893-.84119c0-.46094-.37799-.84125-.83893-.84125Z" fill="#fff" stroke-width="0"/>
    <path d="M76.59413,168.82123c0-.46094-.37799-.84125-.83893-.84125s-.83893.38031-.83893.84125.37799.84119.83893.84119.83893-.38025.83893-.84119Z" fill="#fff" stroke-width="0"/>
    <path d="M87.05751,161.1344c0-.56403-.46552-1.03363-1.03369-1.03363-.5658,0-1.03363.4696-1.03363,1.03363,0,.56812.46783,1.03363,1.03363,1.03363.56818,0,1.03369-.46552,1.03369-1.03363Z" fill="#fff" stroke-width="0"/>
    <path d="M87.38185,170.17695c-.46088,0-.84119.38031-.84119.84125s.38031.83661.84119.83661c.46094,0,.83893-.37567.83893-.83661s-.37799-.84125-.83893-.84125Z" fill="#fff" stroke-width="0"/>
    <path d="M130.39869,160.74952c-.46094,0-.83667.37573-.83667.83667,0,.46088.37573.84119.83667.84119.46088,0,.84119-.38031.84119-.84119,0-.46094-.38031-.83667-.84119-.83667Z" fill="#fff" stroke-width="0"/>
    <path d="M110.37593,167.85492c-.46094,0-.83942.37573-.83942.83661,0,.46094.37848.84125.83942.84125.46045,0,.83893-.38031.83893-.84125,0-.46088-.37848-.83661-.83893-.83661Z" fill="#fff" stroke-width="0"/>
    <path d="M164.24739,178.05622c-.46094,0-.84125.38031-.84125.84125,0,.46088.38031.84119.84125.84119.46088,0,.83661-.38031.83661-.84119,0-.46094-.37573-.84125-.83661-.84125Z" fill="#fff" stroke-width="0"/>
    <path d="M168.44422,140.20765c.56818,0,1.03369-.4696,1.03369-1.03363,0-.56812-.46552-1.03363-1.03369-1.03363-.56396,0-1.03363.46552-1.03363,1.03363,0,.56403.46967,1.03363,1.03363,1.03363Z" fill="#fff" stroke-width="0"/>
    <path d="M160.37257,145.63062c.46045,0,.83661-.37567.83661-.83661s-.37616-.84125-.83661-.84125c-.46094,0-.84125.38031-.84125.84125s.38031.83661.84125.83661Z" fill="#fff" stroke-width="0"/>
    <path d="M168.31459,147.44269c.56812,0,1.0332-.4696,1.0332-1.03363,0-.56812-.46509-1.03363-1.0332-1.03363-.56403,0-1.03363.46552-1.03363,1.03363,0,.56403.4696,1.03363,1.03363,1.03363Z" fill="#fff" stroke-width="0"/>
    <path d="M160.37257,157.25959c.46045,0,.83661-.38025.83661-.84119,0-.45636-.37616-.83661-.83661-.83661-.46094,0-.84125.38025-.84125.83661,0,.46094.38031.84119.84125.84119Z" fill="#fff" stroke-width="0"/>
    <path d="M182.26557,133.55402c0-.46045-.37567-.84076-.83661-.84076s-.84119.38031-.84119.84076c0,.46094.38025.84119.84119.84119s.83661-.38025.83661-.84119Z" fill="#fff" stroke-width="0"/>
    <path d="M183.30335,137.62586c-.56812,0-1.03778.46545-1.03778,1.03363,0,.56354.46967,1.02905,1.03778,1.02905.56403,0,1.02954-.46552,1.02954-1.02905,0-.56818-.46552-1.03363-1.02954-1.03363Z" fill="#fff" stroke-width="0"/>
    <path d="M197.76936,143.693c-.5686,0-1.03363.47009-1.03363,1.03363,0,.56818.46503,1.03369,1.03363,1.03369.56818,0,1.03363-.46552,1.03363-1.03369,0-.56354-.46545-1.03363-1.03363-1.03363Z" fill="#fff" stroke-width="0"/>
    <path d="M183.23646,154.67322c-.46094,0-.84119.38025-.84119.84119s.38025.84119.84119.84119.84125-.38025.84125-.84119-.38031-.84119-.84125-.84119Z" fill="#fff" stroke-width="0"/>
    <path d="M192.53883,145.88996c-.46094,0-.84119.38031-.84119.84119,0,.46094.38025.83667.84119.83667s.84119-.37573.84119-.83667c0-.46088-.38025-.84119-.84119-.84119Z" fill="#fff" stroke-width="0"/>
    <path d="M190.86097,159.45655c-.46094,0-.84119.38031-.84119.84125,0,.4563.38025.83661.84119.83661.45636,0,.83667-.38031.83667-.83661,0-.46094-.38031-.84125-.83667-.84125Z" fill="#fff" stroke-width="0"/>
    <path d="M136.39436,23.99445l.3844,2.29089.38074-2.27484c.51453-.12555.92603-.52368,1.0694-1.03595l2.25928-.39587-2.24139-.31799c-.11639-.53009-.51453-.95526-1.03363-1.10278l-.43439-2.23041-.29504,2.21021c-.53241.11871-.95758.52783-1.10052,1.05383l-2.17041.38715,2.16125.35095c.12549.50995.5191.91956,1.02032,1.06482Z" fill="#fff" stroke-width="0"/>
    <path d="M79.29231,179.63141l-.43433-2.23267-.29279,2.21027c-.53467.12091-.9599.52777-1.10101,1.05151l-2.16992.3894,2.16125.34869c.12506.51453.51678.92188,1.02032,1.06482l.38214,2.29083.38074-2.27252c.51636-.12555.92828-.52368,1.0694-1.03363l2.25928-.39819-2.23962-.31793c-.11591-.53241-.51636-.95764-1.03546-1.10059Z" fill="#fff" stroke-width="0"/>
    <path d="M185.80915,159.19678l-.4339-2.22815-.29553,2.21027c-.53241.11639-.95715.52826-1.10052,1.05151l-2.16534.38489,2.15662.35321c.12506.51044.51868.9173,1.0199,1.06531l.38489,2.29089.38031-2.27307c.51447-.12964.92639-.52826,1.06934-1.03821l2.25977-.39813-2.24188-.3175c-.11639-.52832-.51453-.953-1.03363-1.10101Z" fill="#fff" stroke-width="0"/>
    <path d="M195.27687,137.51404c-.11633-.52783-.5191-.953-1.03363-1.10052l-.43848-2.23273-.29047,2.21027c-.53241.12097-.96216.52783-1.10101,1.05609l-2.16992.3844,2.16119.3537c.12512.50995.51459.9173,1.01996,1.06482l.38025,2.29089.38489-2.27759c.51453-.12512.92645-.52325,1.06482-1.0332l2.2597-.39862-2.2373-.3175Z" fill="#fff" stroke-width="0"/>
    <path d="M88.80909,55.08722l.38489,2.29315.38025-2.27527c.51685-.12787.92645-.526,1.0694-1.03595l2.25745-.39819-2.2373-.31793c-.11633-.53015-.5191-.953-1.03589-1.10059l-.4339-2.23267-.2951,2.21252c-.53467.11865-.95758.52826-1.10095,1.05383l-2.16766.38483,2.15894.35101c.12506.5127.51685.91956,1.0199,1.06525Z" fill="#fff" stroke-width="0"/>
  </g>
</svg>