<?xml version="1.0" encoding="utf-8"?>
<!-- Generator: Adobe Illustrator 15.0.0, SVG Export Plug-In . SVG Version: 6.00 Build 0)  -->
<!DOCTYPE svg PUBLIC "-//W3C//DTD SVG 1.1//EN" "http://www.w3.org/Graphics/SVG/1.1/DTD/svg11.dtd">
<svg version="1.1" id="Layer_1" xmlns="http://www.w3.org/2000/svg" xmlns:xlink="http://www.w3.org/1999/xlink" x="0px" y="0px"
	 width="131.628px" height="131.734px" viewBox="0 0 131.628 131.734" enable-background="new 0 0 131.628 131.734"
	 xml:space="preserve">
<path fill="#FFFFFF" d="M124.044,37.123l-0.017,0.019l-0.812,0.882c-13.873,18.784-25.084,34.24-44.222,40.454
	c-0.163,0.118-1.293,1.101,9.789,0.008c0.45-0.036,5.238-0.324,6.3,3.022l-5.563,0.324c-18.143,2.448-32.11,19.115-46.095,10.458
	c-0.057,0,0.246-0.073,0.456-0.121c5.983-1.622,18.194-6.686,20.387-8.879c0.018,0-2.88-0.144-4.392-0.144
	c-34.756-1.64-45.43-30.599-55.347-34.342l-2.794-0.771L1.722,48.03c-0.07,0.247-0.129,0.497-0.196,0.745
	c-0.104,0.388-0.208,0.775-0.306,1.165c-0.206,0.818-0.396,1.639-0.569,2.463c-0.021,0.103-0.047,0.202-0.067,0.304
	c-0.206,1.002-0.381,2.01-0.54,3.02c-0.025,0.162-0.046,0.323-0.07,0.484c-0.135,0.908-0.25,1.819-0.347,2.732
	c-0.014,0.133-0.029,0.265-0.042,0.397c-0.208,2.086-0.315,4.183-0.321,6.282c0,0.246,0.002,0.492,0.005,0.738
	c0.003,0.351-0.002,0.702,0.006,1.053c-0.144,29.646,24.064,62.438,62.726,64.348l5.238,0.106
	c37.511-1.044,62.69-33.352,63.464-61.844C132.179,53.07,124.171,37.123,124.044,37.123z"/>
<path fill="#FFFFFF" d="M95.912,7.659c-9.216-5.056-19.547-7.734-30.058-7.793C28.182,0.01,11.533,27.602,11.533,27.602
	c0.015,0.007,0.03,0.016,0.044,0.022c8.32,4.107,16.983,16.374,17.108,16.554c9.341,13.14,22.337,33.441,39.202,33.819
	c5.4,0.126,9-3.096,13.086-7.073C95.916,56.539,97.96,29.739,117.082,25.94c0.016-0.003,0.032-0.009,0.049-0.012
	C111.548,18.297,104.289,12.047,95.912,7.659z M47.405,42.972h-3.708V29.401c0-0.417-0.338-0.756-0.756-0.756h-2.088
	c-0.411,0.01-0.738,0.345-0.738,0.756v13.697h-3.707V25.802h7.722c1.758-0.012,3.208,1.375,3.275,3.131V42.972z M61.571,39.733
	c0,1.799-1.459,3.258-3.258,3.258h-4.482c-1.799,0-3.258-1.459-3.258-3.258V28.951c0-1.799,1.458-3.258,3.258-3.258h4.482
	c1.799,0,3.258,1.459,3.258,3.258V39.733z M75.753,43.009h-3.707v-6.947h-3.601v7.038h-3.708V29.06c0-1.799,1.458-3.258,3.258-3.258
	h4.482c1.771-0.012,3.227,1.396,3.275,3.167V43.009z M89.919,43.009H86.21v-6.947h-3.6v7.038h-3.708V29.06
	c0-1.799,1.458-3.258,3.258-3.258h4.481c1.771-0.012,3.227,1.396,3.275,3.167v14.039H89.919z"/>
<path fill="#FFFFFF" d="M85.527,28.681h-2.178c-0.369,0.044-0.651,0.349-0.666,0.72v3.636h3.6v-3.6
	C86.283,29.02,85.945,28.681,85.527,28.681z"/>
<path fill="#FFFFFF" d="M71.291,28.681h-2.089c-0.403,0-0.737,0.316-0.756,0.72v3.636h3.601v-3.6
	C72.046,29.02,71.707,28.681,71.291,28.681z"/>
<path fill="#FFFFFF" d="M57.107,28.663h-2.088c-0.417,0-0.756,0.338-0.756,0.756v9.846c0,0.417,0.338,0.756,0.756,0.756h2.088
	c0.417,0,0.756-0.338,0.756-0.756v-9.846C57.862,29.002,57.524,28.663,57.107,28.663z"/>
</svg>
