<?xml version="1.0" encoding="utf-8"?>
<!-- Generator: Adobe Illustrator 15.0.0, SVG Export Plug-In . SVG Version: 6.00 Build 0)  -->
<!DOCTYPE svg PUBLIC "-//W3C//DTD SVG 1.1//EN" "http://www.w3.org/Graphics/SVG/1.1/DTD/svg11.dtd">
<svg version="1.1" id="Layer_1" xmlns="http://www.w3.org/2000/svg" xmlns:xlink="http://www.w3.org/1999/xlink" x="0px" y="0px"
	 width="759.5px" height="519.5px" viewBox="0 0 759.5 519.5" enable-background="new 0 0 759.5 519.5" xml:space="preserve">
<g>
	<path fill="#FFFFFF" d="M172.25,21.25c-1,130.75-1,130.75-1,130.75c0,54.5-32.25,75.75-75.75,75.75c-37.5,0-85.25-16.75-85.25-73.5
		c0-133,0-133,0-133c0-7.5-5-12-10.25-14.5c61.5,0,61.5,0,61.5,0c-5,2.5-10,7-10,14.5c0,134,0,134,0,134
		c0,22.5,7.75,54.25,49.5,54.25c38,0,51.75-25,51.75-56.75c-0.5-131.5-0.5-131.5-0.5-131.5c0-7.5-4-12-8.75-14.5
		c37.25,0,37.25,0,37.25,0C175.75,9.25,172.25,13.75,172.25,21.25"/>
	<path fill="#FFFFFF" d="M259,227.75c-29,0-50.25-10-61.5-15.5c-1.5-54-1.5-54-1.5-54C202,181,221.25,211,254.5,211
		c31.75,0,41.5-22.75,41.5-38.5c0-30.75-28-34.75-57-50.5c-29.5-16.25-42.25-33.5-42.25-58c0-43.5,40.5-60.75,69.75-60.75
		c10.75,0,32,2.25,48.25,11.75c1.5,47.5,1.5,47.5,1.5,47.5c-4.25-17-22.5-42.75-53.25-42.75c-24.5,0-34,17-34,30.75
		c0,19.75,13.75,27,43.75,40.75c30,14.25,61,24.75,61,69.25C333.75,200.5,298.5,227.75,259,227.75"/>
	<path fill="#FFFFFF" d="M433.25,22.75c-7.75,0-24.75,0-29.5,0.75c0,184.25,0,184.25,0,184.25c25.75,0,25.75,0,25.75,0
		c72.25,0,92.5-48.5,92.5-95.25C522,74,499.5,22.75,433.25,22.75L433.25,22.75z M437,224.5c-82.25,0-82.25,0-82.25,0
		c4.75-3,8.5-7.5,8.5-14.5c0-188.75,0-188.75,0-188.75c0-7.5-3.75-12-8.5-14.5c85.25,0,85.25,0,85.25,0
		c105.25,0,126.5,74.5,126.5,105.75C566.5,168.25,523.5,224.5,437,224.5"/>
	<path fill="#FFFFFF" d="M640.25,69.25c0,0-21.75,54.5-32,78.5c64.75,0,64.75,0,64.75,0C658,112,640.25,69.25,640.25,69.25
		L640.25,69.25z M691,224.5c8.25-4.5,9.75-9,7.5-15.75c-0.75-3.25-9.25-22.75-18-44.5c-78.5,0-78.5,0-78.5,0
		C592.25,186,584.75,205,584,208.5c-3,7.75-1.25,12.25,7.25,16c-44,0-44,0-44,0c9-6,11.75-9.5,15-15.75
		C568.25,196.75,652.5,0,652.5,0s85.25,196.75,91,208.75c3.25,6.75,5.25,10.25,16,15.75C691,224.5,691,224.5,691,224.5"/>
	<path fill="#FFFFFF" d="M749.75,255.25c0,0-466-11.5-741.75,135.5c0,0,292.5-115.75,741.75-104
		C749.75,255.25,749.75,255.25,749.75,255.25"/>
	<path fill="#FFFFFF" d="M8,255.25c0,0,157,1.75,254.25,38c0,0-199.75-16.5-254.25-8.25C8,255.25,8,255.25,8,255.25"/>
	<path fill="#FFFFFF" d="M8,306.5c0,0,112.25-5,180,1.75c0,0-163.5,19.75-180,28C8,306.5,8,306.5,8,306.5"/>
	<path fill="#FFFFFF" d="M672.75,311.5c-1,0-2,0-2.5,0C534.75,314.25,250.5,330.5,8,416.25C8,519.5,8,519.5,8,519.5
		c742,0,742,0,742,0c0-208,0-208,0-208S721.25,310.75,672.75,311.5"/>
</g>
</svg>
